**ABCDEFGHIJKLMNOPQRSTUVWXYZabcdefghijklmnopqrstuvwxyz**************************
**PARASOLID !"#$%&'()*+,-./:;<=>?@[\]^_`{|}~0123456789**************************
**PART1;
MC=unknown;
MC_MODEL=unknown;
MC_ID=unknown;
OS=unknown;
OS_RELEASE=unknown;
FRU=Parasolid 35.1.246;
APPL=Onshape;
SITE=unknown;
USER=unknown;
FORMAT=text;
GUISE=transmit;
KEY=BTGapi::writeModels_.xmt;
FILE=BTGapi::writeModels_.xmt;
DATE=2024-01-22T12:08:20 (UTC);
**PART2;
SCH=SCH_3501246_35102;
USFLD_SIZE=0;
**PART3;
**END_OF_HEADER*****************************************************************
T51 : TRANSMIT FILE created by modeller version 350124623 SCH_3501246_35102_1300
6231 0 12 36 CCCI7 lattice222 0 CCCI4 mesh1006 0 I8 polyline1008 0 CCCCCCCDI5 ow
ner1040 0 CCCI16 boundary_lattice222 0 CCCI13 boundary_mesh1006 0 I17 boundary_p
olyline1008 0 CCCA16 index_map_offset0 0 1 dA9 index_map82 0 A17 node_id_index_m
ap82 0 A20 schema_embedding_map82 0 A5 child12 0 A14 lowest_node_id0 0 1 dA16 me
sh_offset_data206 0 Z1 996 2 3 0 0 0 0 0 0 0 1e3 1e-8 0 4 5 1 0 1 2 6 0 7 8 9 0
 0 10 11 12 0 0 0 0 0 0 0 81 255 1 2 971 13 1 14 0 0 0 15 70 11 CI9 list_type0 0
 1 uI10 notransmit0 0 1 lCCCDCCDI12 finger_index0 0 1 dI12 finger_block1012 0 CZ
3 0 4 T1 0 0 5 20 1 16 16 13 255 6 137 0 1 0 17 0 0 18 0 50 255 7 132 0 19 20 0
 0 +0 -.003 .04 -1 0 0 0 0 1 30 255 8 136 0 11 21 0 0 +0 -.003 0 0 1 0 29 255 9
 469 0 12 22 0 .039 -.008 .0365627460668062 19 9 CCCCCCI5 frame230 0 CA5 owner12
 0 Z10 48 0 1 18 0 23 0 V0 16 255 11 120 24 ?25 0 26 8 0 0 1 18 255 12 465 27 28
 0 29 9 ?1 81 1 27 572 30 12 0 0 31 32 33 17 255 28 0 34 35 36 12 37 38 0 39 +18
 29 207 40 41 12 42 22 ?1 81 1 40 343 30 29 0 0 43 44 45 17 41 0 46 47 48 29 49
 50 0 51 +18 42 204 52 47 29 53 54 ?1 29 22 209 0 29 54 9 .042 -.003 .066 29 54
 206 0 42 55 22 .042 -.003 .028 29 55 200 0 53 56 54 .039 -.003 .066 18 53 198 4
3 48 42 57 55 ?1 29 56 113 0 58 59 55 0 0 .08 18 58 92 60 61 62 63 56 ?1 29 59 1
14 0 63 64 56 .08 0 .08 18 63 96 65 66 58 67 59 ?1 29 64 115 0 67 68 59 .08 0 0
 18 67 100 69 70 63 71 64 ?1 29 68 116 0 71 72 64 0 0 0 18 71 104 73 25 67 74 68
 ?1 29 72 44 0 57 75 68 0 -.003 .08 18 57 42 76 77 53 78 72 ?1 29 75 39 0 78 79
 72 .08 -.003 .08 18 78 37 80 81 57 82 75 ?1 29 79 34 0 82 83 75 .08 -.003 0 18
 82 32 84 85 78 62 79 ?1 29 83 29 0 62 86 79 0 -.003 0 18 62 27 87 88 82 58 83 ?
1 29 86 331 0 89 90 83 .039 -.003 .028 18 89 273 44 91 92 93 86 ?1 29 90 333 0 7
4 94 86 .042 -.008 .066 18 74 277 95 96 71 97 90 ?1 29 94 334 0 97 98 90 .042 -.
008 .028 18 97 283 99 100 74 101 94 ?1 29 98 335 0 101 102 94 .039 -.008 .028 18
 101 281 103 104 97 92 98 ?1 29 102 336 0 92 105 98 .039 -.008 .066 18 92 269 10
6 107 101 89 102 ?1 29 105 564 0 93 108 102 .039 -.008 .0524372539331938 18 93 5
30 109 36 89 110 105 ?1 29 108 566 0 110 111 105 .042 -.008 .0524372539331938 18
 110 528 31 112 93 113 108 ?1 29 111 567 0 113 0 108 .042 -.008 .036562746066806
2 18 113 532 32 35 110 0 111 ?1 81 1 32 573 30 113 0 0 27 114 115 17 35 0 34 112
 28 113 39 116 0 117 -15 255 34 551 0 36 118 0 17 112 0 34 36 35 110 117 119 0 1
20 -17 39 0 121 104 122 12 35 116 0 123 +16 116 523 124 ?39 38 125 126 0 0 1 17
 117 0 127 100 128 113 112 119 0 122 +15 127 300 0 128 129 0 17 100 0 127 130 11
7 97 122 131 0 132 +17 128 0 127 117 96 110 133 134 0 0 +16 119 518 135 ?117 125
 136 137 0 0 1 17 122 0 121 39 132 113 100 131 0 0 -15 121 304 0 122 17 0 17 132
 0 121 122 104 97 138 139 0 140 +16 131 451 141 ?100 134 139 142 134 134 1 81 1
 141 584 30 131 0 0 143 144 145 16 134 247 143 ?128 146 131 142 131 131 1 16 139
 256 147 ?132 131 148 149 0 0 1 30 142 325 0 134 149 150 0 +.042 -.008 .047 0 0
 -1 30 149 326 0 139 151 142 0 +.0405 -.008 .028 1 0 0 30 150 324 0 50 142 152 0
 +.0405 -.003 .066 1 0 0 16 50 259 153 ?41 154 38 150 0 0 1 30 152 323 0 154 150
 155 0 +.039 -.003 .047 0 0 -1 16 154 231 156 ?157 158 50 152 0 0 1 30 155 322 0
 158 152 159 0 +.0405 -.003 .028 1 0 0 16 158 239 160 ?161 162 154 155 0 0 1 30
 159 321 0 162 155 163 0 +.042 -.003 .047 0 0 -1 16 162 264 164 ?47 165 158 159
 0 0 1 30 163 320 0 146 159 166 0 +.042 -.008 .066 0 1 0 16 146 228 167 ?51 168
 134 163 0 0 1 30 166 319 0 168 163 169 0 +.042 -.008 .028 0 1 0 16 168 250 170
 ?130 171 146 166 0 0 1 30 169 318 0 171 166 172 0 +.039 -.008 .028 0 1 0 16 171
 244 173 ?174 175 168 169 0 0 1 30 172 317 0 175 169 176 0 +.039 -.008 .066 0 1
 0 16 175 236 177 ?178 179 171 172 0 0 1 30 176 9 0 180 172 181 0 +0 -.003 .04 0
 0 1 16 180 7 182 ?183 184 185 176 0 0 1 30 181 14 0 184 176 186 0 +.04 -.003 0
 1 0 0 16 184 12 187 ?85 188 180 181 0 0 1 30 186 19 0 188 181 189 0 +.08 -.003
 .04 -3469446951953615e-31 0 1 16 188 17 190 ?81 191 184 186 0 0 1 30 189 24 0 1
91 186 192 0 +.04 -.003 .08 1 0 0 16 191 22 193 ?194 195 188 189 0 0 1 30 192 11
2 0 179 189 196 0 +0 0 .04 0 0 1 16 179 88 197 ?198 199 175 192 0 0 1 30 196 111
 0 199 192 200 0 +.04 0 0 1 0 0 16 199 84 201 ?70 202 179 196 0 0 1 30 200 110 0
 202 196 203 0 +.08 0 .04 -3469446951953615e-31 0 1 16 202 80 204 ?205 185 199 2
00 0 0 1 30 203 109 0 185 200 206 0 +.04 0 .08 1 0 0 16 185 76 207 ?208 180 202
 203 0 0 1 30 206 133 0 195 203 209 0 +0 -.003 .08 0 1 0 16 195 117 210 ?61 211
 191 206 0 0 1 30 209 134 0 211 206 21 0 +.08 -.003 .08 0 1 0 16 211 118 212 ?66
 26 195 209 0 0 1 30 21 135 0 26 209 8 0 +.08 -.003 0 0 1 0 16 26 119 213 ?214 1
1 211 21 0 0 1 81 1 213 161 30 26 0 0 24 210 215 17 214 0 216 205 217 67 218 26
 0 219 +15 216 123 0 205 220 0 17 205 0 216 221 214 63 219 202 0 208 +17 217 0 2
16 214 221 82 81 188 0 0 -17 218 0 222 223 70 82 214 26 0 217 -17 219 0 224 225
 208 67 205 202 0 0 -15 224 75 0 198 226 0 17 225 0 224 198 219 71 70 199 0 227
 -17 208 0 224 219 198 63 228 185 0 0 +17 198 0 224 208 225 58 227 179 0 228 +17
 228 0 229 77 66 58 208 185 0 0 -15 229 121 0 228 230 0 17 77 0 229 194 228 57 6
1 195 0 183 -17 66 0 229 228 194 63 221 211 0 205 +17 194 0 229 66 77 78 231 191
 0 0 +17 221 0 216 217 205 78 66 211 0 194 -17 231 0 232 233 81 57 194 191 0 0 -
15 232 6 0 233 234 46 17 233 0 232 85 231 62 183 180 0 0 -17 81 0 232 231 85 78
 217 188 0 221 +17 85 0 232 81 233 82 223 184 0 218 +17 223 0 222 25 218 62 85 1
84 0 233 -15 222 125 0 70 235 0 17 25 0 222 70 223 71 88 11 0 225 +17 70 0 222 2
18 25 67 225 199 0 214 +17 88 0 236 183 227 62 25 11 0 223 -15 236 127 0 227 19
 0 17 183 0 236 61 88 57 233 180 0 231 +17 227 0 236 88 61 71 198 179 0 0 -17 61
 0 236 227 183 58 77 195 0 198 +14 255 19 128 237 ?235 234 236 6 7 +0 0 235 234
 23 81 1 237 976 238 19 239 0 240 241 242 14 235 126 241 ?220 19 222 6 20 -0 0 2
20 19 23 14 234 1 240 ?19 129 243 6 244 +0 0 19 129 23 13 23 49 0 0 0 0 0 0 10 1
7 14 17 477 245 ?246 0 121 6 247 +248 248 246 0 23 81 1 245 972 238 17 249 0 0 2
50 251 14 246 289 250 ?129 17 252 6 253 -0 0 129 17 23 50 247 316 0 248 254 255
 0 +.04 -.008 .04 0 -1 0 1 0 0 14 248 301 256 ?118 257 258 6 247 +17 17 118 257
 23 81 1 256 983 238 248 144 0 259 260 261 14 118 548 260 ?262 248 34 6 254 -0 0
 262 248 23 14 257 293 259 ?248 263 264 6 265 -0 0 248 263 23 15 258 481 0 120 2
48 0 17 120 0 258 133 266 110 36 125 0 128 -17 133 0 258 267 120 74 128 134 0 0
 -17 266 0 258 120 267 93 268 148 0 0 +17 36 0 34 28 112 93 120 125 0 37 +16 125
 508 269 ?36 116 119 270 0 0 1 81 1 269 579 30 125 0 0 271 124 272 30 270 559 0
 125 137 126 0 +.080002 -.008 .0524372539331938 -1 0 0 31 255 137 561 0 119 273
 270 0 -.042 -.017 .0445 1 0 0 0 0 -1 .012 30 126 558 0 116 270 274 0 +.080002 -
.008 .0365627460668062 -1 0 0 30 274 328 0 165 126 151 0 +.0405 -.008 .066 1 0 0
 16 165 225 275 ?276 277 162 274 0 0 1 30 151 327 0 148 274 149 0 +.039 -.008 .0
47 0 0 -1 16 148 253 278 ?266 139 277 151 277 277 1 81 1 278 581 30 148 0 0 124
 279 280 16 277 466 279 ?104 148 165 151 148 148 1 81 1 279 582 30 277 0 0 278 1
43 281 17 104 0 121 132 39 101 123 277 0 282 +17 123 0 252 37 282 12 104 277 0 0
 -17 282 0 252 123 157 101 174 171 0 138 -15 252 471 0 37 246 0 17 157 0 252 282
 178 89 48 154 0 174 +17 174 0 264 161 138 89 282 171 0 0 +17 138 0 264 174 140
 101 132 139 0 0 -15 264 296 0 161 257 0 17 140 0 264 138 161 97 130 168 0 0 -17
 161 0 264 140 174 42 91 158 0 0 +17 130 0 127 283 100 42 140 168 0 161 +17 283
 0 127 96 130 29 47 162 0 0 -17 96 0 127 128 283 74 51 146 0 276 -17 47 0 46 91
 41 42 283 162 0 130 +15 46 199 0 48 234 0 17 91 0 46 48 47 89 161 158 0 157 -17
 48 0 46 41 91 53 157 154 0 178 -17 178 0 252 157 268 53 107 175 0 49 +17 268 0
 252 178 37 92 266 148 0 267 -17 107 0 284 276 49 92 178 175 0 268 -17 49 0 284
 107 51 53 41 50 0 0 -15 284 288 0 49 263 0 17 51 0 284 49 276 29 96 146 0 283 +
17 276 0 284 51 107 74 267 165 0 133 +17 267 0 258 266 133 92 276 165 0 0 -14 26
3 285 285 ?257 226 284 6 286 +0 0 257 226 23 81 1 285 981 238 263 287 0 288 259
 289 14 226 68 288 ?263 230 290 6 291 -0 0 263 230 23 50 286 311 0 263 253 244 0
 +.0405 -.008 .066 0 0 1 1 0 0 50 253 312 0 246 265 286 0 +.039 -.008 .047 1 0 0
 0 0 -1 50 244 3 0 234 286 291 0 +.04 -.003 .04 0 -1 0 1 0 0 50 291 108 0 226 24
4 292 0 +.04 0 .04 0 -1 0 1 0 0 50 292 129 0 230 291 293 0 +.04 -.003 .08 0 0 1
 1 0 0 14 230 122 294 ?226 220 229 6 292 +0 0 226 220 23 50 293 130 0 220 292 20
 0 +.08 -.003 .04 -1 0 -3469446951953615e-31 -3469446951953615e-31 0 1 14 220 12
4 295 ?230 235 216 6 293 -0 0 230 235 23 50 20 131 0 235 293 7 0 +.04 -.003 0 0
 0 1 1 0 0 81 1 295 978 238 220 296 0 241 294 297 80 7 CCCCCDI12 legal_owners0 1
6 1 lCZ1 238 0 298 8001 0 0 0 0 3 5 0 0 0 FFFFTFTFFFFFFFFF2 81 1 296 177 30 220
 0 295 239 275 299 81 1 241 977 238 235 300 0 237 295 301 81 1 294 979 238 230 3
02 0 295 288 303 83 255 3 297 .4 .4 .4 81 1 302 175 30 230 0 294 300 239 304 81
 1 288 980 238 226 305 0 294 285 306 83 3 303 .4 .4 .4 81 1 305 967 30 226 0 288
 307 308 309 83 3 306 .4 .4 .4 80 1 30 310 311 9000 0 0 0 0 3 6 0 0 0 FFTFTFTTFF
FFFFFF1 81 1 307 966 30 312 0 313 314 305 315 81 1 308 968 30 234 0 240 305 0 31
6 82 255 3 309 19 12 2 81 1 240 975 238 234 308 0 317 237 318 82 3 316 19 13 2 8
1 1 317 974 238 129 271 0 250 240 319 83 3 318 .4 .4 .4 14 129 297 317 ?234 246
 127 6 255 +0 0 234 246 23 81 1 271 578 30 129 0 317 320 269 321 81 1 250 973 23
8 246 320 0 245 317 322 83 3 319 .4 .4 .4 81 1 320 577 30 246 0 250 323 271 324
 83 3 322 .4 .4 .4 81 1 323 576 30 118 0 260 135 320 325 82 3 324 15 1 2 81 1 26
0 984 238 118 323 0 256 326 327 81 1 135 575 30 119 0 0 114 323 328 82 3 325 15
 0 2 81 1 114 574 30 38 0 0 32 135 329 82 3 328 15 1 1 16 38 503 114 ?28 50 116
 273 0 0 1 82 3 329 15 0 1 31 273 563 0 38 330 137 0 +.039 -.017 .0445 -1 0 0 0
 0 1 .012 31 330 912 0 136 331 273 0 +.0745 0 .005 0 -1 0 0 0 -1 .0021 16 136 85
3 332 ?333 119 334 330 0 0 1 31 331 913 0 334 335 330 0 +.0745 -.002 .005 0 -1 0
 0 0 -1 .0021 16 334 850 336 ?337 136 338 331 0 0 1 31 335 914 0 338 339 331 0 +
.0745 -.002 .005 0 -1 0 0 0 -1 .001 16 338 847 340 ?341 334 342 335 0 0 1 31 339
 915 0 342 343 335 0 +.0745 -.003 .005 0 -1 0 0 0 -1 .001 16 342 842 344 ?345 33
8 346 339 0 0 1 31 343 916 0 347 348 339 0 +.004 0 .003 0 -1 0 0 0 -1 .0021 16 3
47 767 349 ?350 351 352 343 0 0 1 31 348 917 0 352 353 343 0 +.004 -.002 .003 0
 -1 0 0 0 -1 .0021 16 352 764 354 ?355 347 356 348 0 0 1 31 353 918 0 356 357 34
8 0 +.004 -.002 .003 0 -1 0 0 0 -1 .001 16 356 761 358 ?359 352 360 353 0 0 1 31
 357 919 0 360 361 353 0 +.004 -.003 .003 0 -1 0 0 0 -1 .001 16 360 756 362 ?363
 356 364 357 0 0 1 31 361 920 0 346 365 357 0 +.076 0 .061 0 -1 0 0 0 -1 .0021 1
6 346 724 366 ?367 342 368 361 0 0 1 31 365 921 0 368 369 361 0 +.076 -.002 .061
 0 -1 0 0 0 -1 .0021 16 368 721 370 ?371 346 372 365 0 0 1 31 369 922 0 372 373
 365 0 +.076 -.002 .061 0 -1 0 0 0 -1 .001 16 372 718 374 ?375 368 351 369 0 0 1
 31 373 923 0 351 376 369 0 +.076 -.003 .061 0 -1 0 0 0 -1 .001 16 351 713 377 ?
378 372 347 373 0 0 1 31 376 924 0 364 379 373 0 +.004 0 .025 0 -1 0 0 0 -1 .002
1 16 364 810 380 ?381 360 382 376 0 0 1 31 379 925 0 382 383 376 0 +.004 -.002 .
025 0 -1 0 0 0 -1 .0021 16 382 807 384 ?385 364 386 379 0 0 1 31 383 926 0 386 3
87 379 0 +.004 -.002 .025 0 -1 0 0 0 -1 .001 16 386 804 388 ?389 382 390 383 0 0
 1 31 387 927 0 390 0 383 0 +.004 -.003 .025 0 -1 0 0 0 -1 .001 16 390 799 391 ?
392 386 0 387 0 0 1 81 1 391 946 30 390 0 0 362 336 393 17 392 0 394 392 392 0 3
95 390 0 0 +15 394 825 0 392 312 396 17 395 0 397 395 395 0 392 390 0 0 -15 397
 676 0 395 234 398 15 398 669 0 399 234 232 17 399 0 398 399 399 0 345 342 0 0 -
17 345 0 400 345 345 0 399 342 0 0 +15 400 868 0 345 262 401 14 262 865 326 ?402
 118 400 6 403 +0 0 402 118 23 15 401 869 0 404 262 0 17 404 0 401 404 404 0 341
 338 0 0 -17 341 0 405 341 341 0 404 338 0 0 +15 405 873 0 341 402 406 14 402 87
0 407 ?408 262 405 6 409 +0 0 408 262 23 15 406 874 0 410 402 0 17 410 0 406 410
 410 0 337 334 0 0 -17 337 0 411 337 337 0 410 334 0 0 +15 411 878 0 337 408 412
 14 408 875 413 ?312 402 411 6 414 +0 0 312 402 23 15 412 879 0 415 408 0 17 415
 0 412 415 415 0 333 136 0 0 -17 333 0 416 333 333 0 415 136 0 0 +15 416 642 0 3
33 226 224 81 1 413 987 238 408 417 0 407 313 418 14 312 822 313 ?419 408 394 6
 420 +0 0 419 408 23 51 255 414 893 0 408 409 254 0 -.0745 0 .005 0 -1 0 .0021 0
 0 -1 50 409 894 0 402 403 414 0 +.0766 -.002 .005 0 1 0 0 0 1 51 254 554 0 118
 414 247 0 +.080002 -.017 .0445 -1 0 0 .012 0 0 1 51 403 895 0 262 421 409 0 -.0
745 0 .005 0 -1 0 .001 0 0 -1 51 421 898 0 422 423 403 0 -.004 0 .003 0 -1 0 .00
21 0 0 -1 14 422 789 424 ?425 426 427 6 421 +0 0 425 426 23 50 423 899 0 426 428
 421 0 +.0061 -.002 .003 0 1 0 0 0 1 14 426 784 429 ?422 430 431 6 423 +0 0 422
 430 23 51 428 900 0 430 432 423 0 -.004 0 .003 0 -1 0 .001 0 0 -1 14 430 779 43
3 ?426 434 435 6 428 +0 0 426 434 23 51 432 903 0 436 437 428 0 -.076 0 .061 0 -
1 0 .0021 0 0 -1 14 436 746 438 ?0 439 440 6 432 +0 0 0 439 23 50 437 904 0 439
 441 432 0 +.0781 -.002 .061 0 1 0 0 0 1 14 439 741 442 ?436 425 443 6 437 +0 0
 436 425 23 51 441 905 0 425 444 437 0 -.076 0 .061 0 -1 0 .001 0 0 -1 14 425 73
6 445 ?439 422 446 6 441 +0 0 439 422 23 51 444 908 0 434 447 441 0 -.004 0 .025
 0 -1 0 .0021 0 0 -1 14 434 832 448 ?430 419 449 6 444 +0 0 430 419 23 50 447 90
9 0 419 420 444 0 +.0061 -.002 .025 0 1 0 0 0 1 14 419 827 450 ?434 312 451 6 44
7 +0 0 434 312 23 51 420 910 0 312 0 447 0 -.004 0 .025 0 -1 0 .001 0 0 -1 81 1
 450 989 238 419 452 0 313 448 453 15 451 830 0 389 419 454 17 389 0 451 389 389
 0 455 386 0 0 +15 454 831 0 456 419 0 17 456 0 454 456 456 0 385 382 0 0 -17 38
5 0 449 385 385 0 456 382 0 0 +15 449 835 0 385 434 457 15 457 836 0 458 434 0 1
7 458 0 457 458 458 0 381 364 0 0 -17 381 0 459 381 381 0 458 364 0 0 +15 459 64
9 0 381 226 416 17 455 0 396 455 455 0 389 386 0 0 -15 396 826 0 455 312 0 81 1
 452 962 30 419 0 450 460 461 462 81 1 313 988 238 312 307 0 413 450 463 81 1 44
8 990 238 434 464 0 450 433 465 83 3 453 .4 .4 .4 81 1 464 958 30 434 0 448 466
 467 468 81 1 433 991 238 430 314 0 448 429 469 83 3 465 .4 .4 .4 81 1 314 965 3
0 430 0 433 470 307 471 81 1 429 992 238 426 460 0 433 424 472 83 3 469 .4 .4 .4
 81 1 460 961 30 426 0 429 473 452 474 81 1 424 993 238 422 466 0 429 445 475 83
 3 472 .4 .4 .4 81 1 466 957 30 422 0 424 476 464 477 81 1 445 994 238 425 470 0
 424 442 478 83 3 475 .4 .4 .4 81 1 470 964 30 425 0 445 461 314 479 81 1 442 99
5 238 439 473 0 445 438 480 83 3 478 .4 .4 .4 81 1 473 960 30 439 0 442 467 460
 481 81 1 438 996 238 436 476 0 442 0 482 83 3 480 .4 .4 .4 81 1 476 956 30 436
 0 438 417 466 483 83 3 482 .4 .4 .4 81 1 417 955 30 408 0 413 388 476 484 82 3
 483 19 1 2 81 1 388 954 30 386 0 0 358 417 485 82 3 484 19 0 2 81 1 358 953 30
 356 0 0 374 388 486 82 3 485 19 15 1 81 1 374 952 30 372 0 0 340 358 487 82 3 4
86 19 14 1 81 1 340 951 30 338 0 0 384 374 488 82 3 487 19 13 1 81 1 384 950 30
 382 0 0 354 340 489 82 3 488 19 12 1 81 1 354 949 30 352 0 0 370 384 490 82 3 4
89 19 11 1 81 1 370 948 30 368 0 0 336 354 491 82 3 490 19 10 1 81 1 336 947 30
 334 0 0 391 370 492 82 3 491 19 9 1 82 3 492 19 8 1 81 1 467 959 30 402 0 407 4
64 473 493 82 3 481 19 5 2 81 1 407 986 238 402 467 0 326 413 494 82 3 493 19 4
 2 81 1 326 985 238 262 461 0 260 407 495 83 3 494 .4 .4 .4 81 1 461 963 30 262
 0 326 452 470 496 83 3 495 .4 .4 .4 82 3 496 19 8 2 82 3 479 19 9 2 82 3 477 19
 2 2 82 3 474 19 6 2 82 3 471 19 10 2 82 3 468 19 3 2 83 3 463 .4 .4 .4 82 3 462
 19 7 2 15 446 739 0 378 425 497 17 378 0 446 378 378 0 498 351 0 0 +15 497 740
 0 499 425 0 17 499 0 497 499 499 0 375 372 0 0 -17 375 0 443 375 375 0 499 372
 0 0 +15 443 744 0 375 439 500 15 500 745 0 501 439 0 17 501 0 500 501 501 0 371
 368 0 0 -17 371 0 440 371 371 0 501 368 0 0 +15 440 749 0 371 436 502 15 502 75
0 0 503 436 0 17 503 0 502 503 503 0 367 346 0 0 -17 367 0 290 367 367 0 503 346
 0 0 +15 290 663 0 367 226 504 15 504 656 0 350 226 459 17 350 0 504 350 350 0 5
05 347 0 0 +17 505 0 506 505 505 0 350 347 0 0 -15 506 793 0 505 422 0 17 498 0
 243 498 498 0 378 351 0 0 -15 243 690 0 498 234 507 15 507 683 0 508 234 397 17
 508 0 507 508 508 0 363 360 0 0 -17 363 0 435 363 363 0 508 360 0 0 +15 435 782
 0 363 430 509 15 509 783 0 510 430 0 17 510 0 509 510 510 0 359 356 0 0 -17 359
 0 431 359 359 0 510 356 0 0 +15 431 787 0 359 426 511 15 511 788 0 512 426 0 17
 512 0 511 512 512 0 355 352 0 0 -17 355 0 427 355 355 0 512 352 0 0 +15 427 792
 0 355 422 506 83 3 418 .4 .4 .4 81 1 362 945 30 360 0 0 377 391 513 82 3 393 19
 7 1 81 1 377 944 30 351 0 0 344 362 514 82 3 513 19 6 1 81 1 344 943 30 342 0 0
 380 377 515 82 3 514 19 5 1 81 1 380 942 30 364 0 0 349 344 516 82 3 515 19 4 1
 81 1 349 941 30 347 0 0 366 380 517 82 3 516 19 3 1 81 1 366 940 30 346 0 0 332
 349 518 82 3 517 19 2 1 81 1 332 939 30 136 0 0 249 366 519 82 3 518 19 1 1 81
 1 249 586 30 17 0 245 144 332 520 82 3 519 19 0 1 81 1 144 585 30 248 0 256 141
 249 521 82 3 520 15 4 2 82 3 521 15 3 2 83 3 327 .4 .4 .4 82 3 321 15 2 2 50 25
5 314 0 129 247 265 0 +.042 -.008 .047 1 0 0 0 0 -1 50 265 313 0 257 255 253 0 +
.0405 -.008 .028 0 0 1 1 0 0 82 3 315 19 11 2 79 255 9 311 BTI/DetId81 1 300 172
 30 235 0 241 190 302 522 81 1 239 176 30 19 0 237 302 296 523 82 3 304 6 3 2 82
 3 523 6 4 2 81 1 190 171 30 188 0 0 204 300 524 82 3 522 6 0 2 81 1 204 170 30
 202 0 0 182 190 525 82 3 524 6 11 1 81 1 182 169 30 180 0 0 197 204 526 82 3 52
5 6 10 1 81 1 197 168 30 179 0 0 193 182 527 82 3 526 6 9 1 81 1 193 167 30 191
 0 0 207 197 528 82 3 527 6 8 1 81 1 207 166 30 185 0 0 187 193 529 82 3 528 6 7
 1 81 1 187 165 30 184 0 0 201 207 530 82 3 529 6 6 1 81 1 201 164 30 199 0 0 21
2 187 531 82 3 530 6 5 1 81 1 212 163 30 211 0 0 210 201 532 82 3 531 6 4 1 81 1
 210 162 30 195 0 0 213 212 533 82 3 532 6 3 1 82 3 533 6 2 1 83 3 301 .4 .4 .4
 81 1 275 227 30 165 0 0 296 167 534 82 3 299 6 5 2 81 1 167 230 30 146 0 0 275
 177 535 82 3 534 10 5 1 81 1 177 238 30 175 0 0 167 173 536 82 3 535 10 1 1 81
 1 173 246 30 171 0 0 177 170 537 82 3 536 10 0 1 81 1 170 252 30 168 0 0 173 14
7 538 82 3 537 10 2 1 81 1 147 258 30 139 0 0 170 106 539 82 3 538 10 3 1 81 1 1
06 270 30 92 0 0 147 95 540 82 3 539 10 7 1 81 1 95 278 30 74 0 0 106 103 541 82
 3 540 10 1 0 81 1 103 282 30 101 0 0 95 99 542 82 3 541 10 3 0 81 1 99 284 30 9
7 0 0 103 287 543 82 3 542 10 5 0 81 1 287 287 30 263 0 285 99 544 545 82 3 543
 10 7 0 81 1 544 295 30 257 0 259 287 546 547 82 3 545 10 0 2 81 1 259 982 238 2
57 544 0 285 256 548 81 1 546 341 30 1 0 549 544 43 550 82 3 547 10 3 2 81 1 549
 969 551 1 546 14 0 0 552 81 1 43 342 30 53 0 0 546 40 553 82 3 550 6 0 3 82 3 5
53 11 0 0 80 1 551 554 555 8038 0 0 0 0 0 0 0 0 0 TTTTTTTTTTTTTFTF10 81 1 14 970
 554 1 549 2 0 0 556 98 255 17 552 72 97 108 116 101 114 117 110 103 32 65 110 1
16 114 105 101 98 80 1 554 557 558 8017 0 0 0 0 0 0 0 0 0 TTTTTTTTTTTTTFTF3 84 2
55 17 556 Halterung Antrieb79 13 558 SDL/TYSA_NAME79 14 555 SDL/TYSA_UNAME83 3 5
48 .4 .4 .4 79 15 298 SDL/TYSA_COLOUR83 3 289 .4 .4 .4 17 37 0 252 268 123 93 28
 38 0 266 -81 1 143 583 30 134 0 0 279 141 559 82 3 281 15 5 1 82 3 559 15 6 1 8
1 1 124 580 30 116 0 0 269 278 560 82 3 280 15 4 1 82 3 560 15 3 1 82 3 272 15 2
 1 83 3 261 .4 .4 .4 83 3 251 .4 .4 .4 83 3 242 .4 .4 .4 81 1 24 160 30 11 0 0 8
0 213 561 82 3 215 6 1 1 81 1 80 159 30 78 0 0 65 24 562 82 3 561 6 0 1 81 1 65
 158 30 63 0 0 76 80 563 82 3 562 6 7 0 81 1 76 157 30 57 0 0 60 65 564 82 3 563
 6 6 0 81 1 60 156 30 58 0 0 84 76 565 82 3 564 6 5 0 81 1 84 155 30 82 0 0 69 6
0 566 82 3 565 6 4 0 81 1 69 154 30 67 0 0 87 84 567 82 3 566 6 3 0 81 1 87 153
 30 62 0 0 73 69 568 82 3 567 6 2 0 81 1 73 152 30 71 0 0 0 87 569 82 3 568 6 1
 0 82 3 569 6 0 0 81 1 164 349 30 162 0 0 156 109 570 81 1 156 348 30 154 0 0 16
0 164 571 81 1 109 570 30 93 0 0 164 31 572 82 3 570 11 3 1 81 1 31 571 30 110 0
 0 109 27 573 82 3 572 15 0 0 82 3 573 15 1 0 81 1 160 347 30 158 0 0 153 156 57
4 82 3 571 11 2 1 81 1 153 346 30 50 0 0 52 160 575 82 3 574 11 1 1 81 1 52 345
 30 42 0 0 44 153 576 82 3 575 11 0 1 81 1 44 344 30 89 0 0 40 52 577 82 3 576 1
1 3 0 82 3 577 11 2 0 82 3 145 15 7 1 82 3 115 15 3 0 82 3 45 11 1 0 82 3 33 15
 2 0 19 18 138 0 1 0 10 6 0 S0 74 4 CI16 index_map_offset0 0 1 dCCZ20 16 5 0 0 3
08 549 14 2 438 0 0 0 0 0 0 0 0 0 0 0 0 0 0 0 80 1 13 238 578 8040 0 0 0 0 3 5 0
 0 0 TTTFFFFFFFFFFFFF2 83 3 15 .4 .4 .4 79 17 578 SDL/TYSA_COLOUR_21 0 
