**ABCDEFGHIJKLMNOPQRSTUVWXYZabcdefghijklmnopqrstuvwxyz**************************
**PARASOLID !"#$%&'()*+,-./:;<=>?@[\]^_`{|}~0123456789**************************
**PART1;
MC=unknown;
MC_MODEL=unknown;
MC_ID=unknown;
OS=unknown;
OS_RELEASE=unknown;
FRU=Parasolid 35.1.246;
APPL=Onshape;
SITE=unknown;
USER=unknown;
FORMAT=text;
GUISE=transmit;
KEY=BTGapi::writeModels_.xmt;
FILE=BTGapi::writeModels_.xmt;
DATE=2024-01-22T12:08:48 (UTC);
**PART2;
SCH=SCH_3501246_35102;
USFLD_SIZE=0;
**PART3;
**END_OF_HEADER*****************************************************************
T51 : TRANSMIT FILE created by modeller version 350124623 SCH_3501246_35102_1300
6231 0 12 36 CCCI7 lattice222 0 CCCI4 mesh1006 0 I8 polyline1008 0 CCCCCCCDI5 ow
ner1040 0 CCCI16 boundary_lattice222 0 CCCI13 boundary_mesh1006 0 I17 boundary_p
olyline1008 0 CCCA16 index_map_offset0 0 1 dA9 index_map82 0 A17 node_id_index_m
ap82 0 A20 schema_embedding_map82 0 A5 child12 0 A14 lowest_node_id0 0 1 dA16 me
sh_offset_data206 0 Z1 508 2 3 0 0 0 0 0 0 0 1e3 1e-8 0 4 5 1 0 1 2 6 0 7 8 9 0
 0 10 11 12 0 0 0 0 0 0 0 81 255 1 2 495 13 1 14 0 0 0 15 70 11 CI9 list_type0 0
 1 uI10 notransmit0 0 1 lCCCDCCDI12 finger_index0 0 1 dI12 finger_block1012 0 CZ
3 0 4 T1 0 0 5 20 1 16 16 13 255 6 137 0 1 0 17 0 0 18 0 50 255 7 132 0 19 20 0
 0 +0 -.027 .014 -1 0 0 0 0 1 31 255 8 308 0 21 22 0 0 -.001 -.014 .014 1 0 1239
08819712629e-30 123908819712629e-30 0 -1 .01 29 255 9 113 0 23 24 0 -52041704279
3042e-32 0 .028 19 9 CCCCCCI5 frame230 0 CA5 owner12 0 Z10 48 0 1 18 0 25 0 V0 1
6 255 11 120 26 ?27 0 28 22 0 0 1 18 255 12 42 29 30 0 31 32 ?1 81 1 29 157 33 1
2 0 0 34 35 36 17 255 30 0 37 38 39 12 40 41 0 42 -18 31 37 43 44 12 45 46 ?1 29
 32 44 0 12 46 47 -520417042793042e-32 -.027 .028 29 46 39 0 31 48 32 .008 -.027
 .028 29 47 116 0 49 32 50 0 0 0 18 49 104 51 27 52 0 47 ?1 29 50 115 0 52 47 24
 .008 0 0 18 52 100 53 54 55 49 50 ?1 29 24 114 0 55 50 9 .008 0 .028 18 55 96 3
5 56 23 52 24 ?1 81 1 35 158 33 55 0 0 29 43 57 17 56 0 37 39 38 55 58 59 0 60 +
18 23 92 34 40 61 55 9 ?1 81 1 34 156 33 23 0 0 62 29 63 17 40 0 64 65 42 23 30
 41 0 66 +18 61 27 67 68 45 23 69 ?1 81 1 67 153 33 61 0 0 51 53 70 17 68 0 64 4
2 65 61 27 11 0 71 -18 45 32 62 72 31 61 48 ?1 29 69 29 0 61 0 48 0 -.027 0 29 4
8 34 0 45 69 46 .008 -.027 0 81 1 62 155 33 45 0 0 53 34 73 17 72 0 74 44 75 45
 71 76 0 77 +15 255 74 6 0 75 78 0 17 44 0 74 79 72 31 80 81 0 58 +17 75 0 74 72
 79 61 42 82 0 0 -17 71 0 83 27 77 61 72 76 0 75 -16 76 12 84 ?72 81 82 85 0 0 1
 17 77 0 83 71 54 45 86 28 0 80 -15 83 125 0 54 87 0 17 54 0 83 77 27 52 88 89 0
 86 +17 86 0 90 60 80 52 77 28 0 91 +16 28 119 92 ?86 11 59 93 0 0 1 17 80 0 90
 86 58 45 44 81 0 0 -15 90 123 0 60 94 0 17 58 0 90 80 60 31 56 59 0 38 -16 81 1
7 95 ?44 96 76 97 0 0 1 81 1 95 171 33 81 0 0 98 99 100 16 96 22 101 ?38 41 81 1
02 0 0 1 30 255 97 19 0 81 85 102 0 +.008 -.027 .014 -123908819712629e-30 0 1 30
 85 14 0 76 103 97 0 +.004 -.027 0 1 0 0 30 102 24 0 96 97 104 0 +.004 -.027 .02
8 1 0 0 30 104 112 0 105 102 106 0 +0 0 .014 0 0 1 16 105 88 107 ?66 89 108 104
 0 0 1 30 106 111 0 89 104 109 0 +.004 0 0 1 0 0 16 89 84 110 ?54 111 105 106 0
 0 1 30 109 110 0 111 106 112 0 +.008 0 .014 -123908819712629e-30 0 1 16 111 80
 98 ?60 113 89 109 0 0 1 30 112 109 0 113 109 114 0 +.004 0 .028 1 0 0 16 113 76
 115 ?116 82 111 112 0 0 1 30 114 133 0 41 112 117 0 +-520417042793042e-32 -.027
 .028 0 1 0 16 41 117 118 ?40 59 96 114 0 0 1 30 117 134 0 59 114 93 0 +.008 -.0
27 .028 0 1 0 16 59 118 119 ?56 28 41 117 0 0 1 30 93 135 0 28 117 22 0 +.008 -.
027 0 0 1 0 30 22 136 0 11 93 8 0 +0 -.027 0 0 1 0 81 1 119 163 33 59 0 0 118 11
0 120 80 7 CCCCCDI12 legal_owners0 16 1 lCZ1 33 121 122 9000 0 0 0 0 3 6 0 0 0 F
FTFTFTTFFFFFFFF1 81 1 118 162 33 41 0 0 92 119 123 81 1 110 164 33 89 0 0 119 84
 124 82 255 3 120 6 3 1 81 1 84 165 33 76 0 0 110 115 125 82 3 124 6 4 1 81 1 11
5 166 33 113 0 0 84 101 126 82 3 125 6 5 1 81 1 101 167 33 96 0 0 115 107 127 82
 3 126 6 6 1 81 1 107 168 33 105 0 0 101 128 129 82 3 127 6 7 1 81 1 128 169 33
 82 0 0 107 98 130 82 3 129 6 8 1 16 82 7 128 ?42 76 113 103 0 0 1 81 1 98 170 3
3 111 0 0 128 95 131 82 3 130 6 9 1 82 3 131 6 10 1 17 42 0 64 40 68 12 75 82 0
 79 +30 103 9 0 82 132 85 0 +0 -.027 .014 0 0 1 31 132 274 0 108 133 103 0 +0 -.
014 .014 -1 0 0 0 0 1 .01 16 108 250 134 ?135 105 21 132 0 0 1 31 133 369 0 136
 137 132 0 +.008 -.014 .014 1 0 123908819712629e-30 123908819712629e-30 0 -1 .01
105 16 136 326 138 ?139 140 141 133 0 0 1 31 137 370 0 140 142 133 0 +.001 -.014
 .014 1 0 123908819712629e-30 123908819712629e-30 0 -1 .01105 16 140 334 143 ?14
4 21 136 137 0 0 1 31 142 479 0 145 146 137 0 +.004 0 .025 0 1 0 0 0 1 .001 16 1
45 451 147 ?148 149 0 142 0 0 1 31 146 480 0 149 150 142 0 +.004 -.005 .025 0 1
 0 0 0 1 .001 16 149 448 151 ?152 153 145 146 0 0 1 31 150 481 0 153 154 146 0 +
.004 0 .003 0 1 0 0 0 1 .001 16 153 429 155 ?156 141 149 150 0 0 1 31 154 482 0
 141 0 150 0 +.004 -.005 .003 0 1 0 0 0 1 .001 16 141 426 157 ?158 136 153 154 0
 0 1 81 1 157 486 33 141 0 0 147 151 159 17 158 0 160 158 158 0 161 141 0 0 +15
 160 442 0 158 162 0 17 161 0 163 161 161 0 158 141 0 0 -15 163 437 0 161 164 16
5 14 255 164 434 166 ?162 167 163 6 168 -0 0 162 167 25 15 165 438 0 156 164 0 1
7 156 0 165 156 156 0 169 153 0 0 +17 169 0 170 169 169 0 156 153 0 0 -15 170 41
5 0 169 171 172 14 171 68 173 ?174 78 170 6 175 -0 0 174 78 25 15 172 408 0 176
 171 177 17 176 0 172 176 176 0 148 145 0 0 -15 177 75 0 66 171 0 17 66 0 177 11
6 88 23 65 105 0 39 +17 116 0 177 91 66 55 39 113 0 0 +17 88 0 177 66 91 49 54 8
9 0 65 -17 65 0 64 68 40 49 66 105 0 0 -17 39 0 37 30 56 23 116 113 0 0 -15 37 1
21 0 39 178 0 14 178 122 179 ?78 94 37 6 180 +0 0 78 94 25 81 1 179 500 181 178
 182 0 183 184 185 14 78 1 184 ?171 178 74 6 186 +0 0 171 178 25 14 94 124 183 ?
178 87 187 6 188 -0 0 178 87 25 50 180 129 0 178 175 188 0 +.004 -.027 .028 0 0
 1 1 0 0 13 25 49 0 0 0 0 0 0 10 17 14 17 259 189 ?19 0 190 6 191 -0 0 19 0 25 8
1 1 189 496 181 17 192 0 0 193 194 14 19 128 193 ?87 17 195 6 7 +0 0 87 17 25 15
 190 263 0 135 17 196 51 255 191 270 0 17 197 186 0 +.008002 -.014 .014 -1 0 0 .
01 0 0 1 51 197 365 0 198 199 191 0 +.001 -.014 .014 1 0 123908819712629e-30 .01
105 123908819712629e-30 0 -1 50 186 3 0 78 191 175 0 +.004 -.027 .014 0 -1 0 1 0
 0 50 175 108 0 171 186 180 0 +.004 0 .014 0 -1 0 1 0 0 14 198 350 200 ?201 174
 202 6 197 -0 0 201 174 25 50 199 367 0 174 203 197 0 +.001 -.0135 .014 1 0 1239
08819712629e-30 0 1 0 14 174 355 204 ?198 171 205 6 199 +0 0 198 171 25 51 203 4
73 0 201 206 199 0 +.004 -.005 .025 0 1 0 .001 0 0 1 14 201 456 207 ?167 198 208
 6 203 -0 0 167 198 25 50 206 475 0 167 168 203 0 +.004 -.005 .014 0 1 0 -1 0 0
 14 167 461 209 ?164 201 210 6 206 +0 0 164 201 25 51 168 476 0 164 211 206 0 +.
004 -.005 .003 0 1 0 .001 0 0 1 50 211 478 0 162 0 168 0 +.004 -.005 .014 0 1 0
 -1 0 0 14 162 439 212 ?0 164 160 6 211 +0 0 0 164 25 81 1 212 508 181 162 213 0
 166 0 214 80 1 181 0 215 8001 0 0 0 0 3 5 0 0 0 FFFFTFTFFFFFFFFF2 81 1 213 489
 33 162 0 212 216 217 218 81 1 166 507 181 164 216 0 209 212 219 83 255 3 214 .3
019607843137255 .3019607843137255 .3019607843137255 81 1 216 488 33 164 0 166 15
1 213 220 81 1 209 506 181 167 221 0 207 166 222 83 3 219 .3019607843137255 .301
9607843137255 .3019607843137255 81 1 221 491 33 167 0 209 217 223 224 81 1 207 5
05 181 201 217 0 200 209 225 83 3 222 .3019607843137255 .3019607843137255 .30196
07843137255 81 1 217 490 33 201 0 207 213 221 226 81 1 200 504 181 198 227 0 204
 207 228 83 3 225 .3019607843137255 .3019607843137255 .3019607843137255 81 1 227
 376 33 198 0 200 143 229 230 81 1 204 503 181 174 229 0 173 200 231 83 3 228 .3
019607843137255 .3019607843137255 .3019607843137255 81 1 229 377 33 174 0 204 22
7 192 232 81 1 173 502 181 171 223 0 184 204 233 83 3 231 .3019607843137255 .301
9607843137255 .3019607843137255 81 1 223 492 33 171 0 173 221 0 234 81 1 184 501
 181 78 235 0 179 173 236 83 3 233 .3019607843137255 .3019607843137255 .30196078
43137255 81 1 235 174 33 78 0 184 99 182 237 83 3 236 .3019607843137255 .3019607
843137255 .3019607843137255 81 1 99 172 33 87 0 238 95 235 239 81 1 182 175 33 1
78 0 179 235 240 241 82 3 237 6 2 2 81 1 240 178 33 1 0 242 182 134 243 82 3 241
 6 3 2 81 1 242 493 244 1 240 14 0 0 245 81 1 134 276 33 108 0 0 240 246 247 82
 3 243 6 0 3 81 1 246 279 33 19 0 193 134 248 249 82 3 247 12 0 1 81 1 193 497 1
81 19 246 0 189 238 250 81 1 248 373 33 21 0 0 246 138 251 82 3 249 12 1 2 16 21
 337 248 ?252 108 140 8 0 0 1 81 1 138 374 33 136 0 0 248 143 253 82 3 251 16 0
 1 81 1 143 375 33 140 0 0 138 227 254 82 3 253 16 1 1 82 3 254 16 2 1 17 252 0
 255 252 252 0 256 21 0 0 +15 255 344 0 252 174 0 17 256 0 196 256 256 0 252 21
 0 0 -15 196 307 0 256 17 0 81 1 238 498 181 87 99 0 193 183 257 83 3 250 .30196
07843137255 .3019607843137255 .3019607843137255 14 87 126 238 ?94 19 83 6 20 -0
 0 94 19 25 81 1 183 499 181 94 258 0 238 179 259 83 3 257 .3019607843137255 .30
19607843137255 .3019607843137255 81 1 258 379 33 94 0 183 192 155 260 83 3 259 .
3019607843137255 .3019607843137255 .3019607843137255 81 1 192 378 33 17 0 189 22
9 258 261 81 1 155 484 33 153 0 0 258 147 262 82 3 260 16 3 2 81 1 147 485 33 14
5 0 0 155 157 263 82 3 262 20 0 1 82 3 263 20 1 1 82 3 261 16 2 2 50 20 131 0 87
 188 7 0 +.004 -.027 0 0 0 1 1 0 0 50 188 130 0 94 180 20 0 +.008 -.027 .014 -1
 0 -123908819712629e-30 -123908819712629e-30 0 1 80 1 244 264 265 8038 0 0 0 0 0
 0 0 0 0 TTTTTTTTTTTTTFTF10 81 1 14 494 264 1 242 2 0 0 266 98 255 22 245 72 97
 108 116 101 114 117 110 103 32 65 99 104 115 101 32 104 105 110 116 101 110 80
 1 264 267 268 8017 0 0 0 0 0 0 0 0 0 TTTTTTTTTTTTTFTF3 84 255 22 266 Halterung
 Achse hinten79 255 13 268 SDL/TYSA_NAME79 14 265 SDL/TYSA_UNAME82 3 239 6 0 2 8
2 3 234 20 4 2 82 3 232 16 1 2 82 3 230 16 0 2 82 3 226 20 2 2 82 3 224 20 3 2 8
1 1 151 487 33 149 0 0 157 216 269 82 3 220 20 0 2 82 3 269 20 3 1 82 3 218 20 1
 2 79 15 215 SDL/TYSA_COLOUR15 210 464 0 152 167 0 17 152 0 210 152 152 0 270 14
9 0 0 +17 270 0 208 270 270 0 152 149 0 0 -15 208 459 0 270 201 271 15 271 460 0
 148 201 0 17 148 0 271 148 148 0 176 145 0 0 +15 205 343 0 144 174 255 17 144 0
 205 144 144 0 272 140 0 0 +17 272 0 202 272 272 0 144 140 0 0 -15 202 353 0 272
 198 273 15 273 354 0 139 198 0 17 139 0 273 139 139 0 274 136 0 0 +17 274 0 187
 274 274 0 139 136 0 0 -15 187 313 0 274 94 90 17 135 0 190 135 135 0 275 108 0
 0 +17 275 0 195 275 275 0 135 108 0 0 -15 195 235 0 275 19 64 15 64 127 0 65 19
 0 83 3 194 .3019607843137255 .3019607843137255 .3019607843137255 83 3 185 .3019
607843137255 .3019607843137255 .3019607843137255 17 91 0 177 88 116 52 60 111 0
 0 -17 60 0 90 58 86 55 91 111 0 116 +82 3 159 20 2 1 17 79 0 74 75 44 12 38 96
 0 0 -17 38 0 37 56 30 31 79 96 0 0 +81 1 92 161 33 28 0 0 26 118 276 82 3 123 6
 2 1 81 1 26 160 33 11 0 0 43 92 277 82 3 276 6 1 1 81 1 43 159 33 31 0 0 35 26
 278 82 3 277 6 0 1 82 3 278 6 7 0 79 9 122 BTI/DetId82 3 100 6 11 1 17 27 0 83
 54 71 49 68 11 0 88 +81 1 53 154 33 52 0 0 67 62 279 82 3 73 6 3 0 82 3 279 6 2
 0 81 1 51 152 33 49 0 0 0 67 280 82 3 70 6 1 0 82 3 280 6 0 0 82 3 63 6 4 0 82
 3 57 6 6 0 82 3 36 6 5 0 19 18 138 0 1 0 10 6 0 S0 74 4 CI16 index_map_offset0
 0 1 dCCZ20 16 5 0 0 223 242 14 2 212 0 0 0 0 0 0 0 0 0 0 0 0 0 0 0 80 1 13 181
 281 8040 0 0 0 0 3 5 0 0 0 TTTFFFFFFFFFFFFF2 83 3 15 .3019607843137255 .3019607
843137255 .3019607843137255 79 17 281 SDL/TYSA_COLOUR_21 0 
