**ABCDEFGHIJKLMNOPQRSTUVWXYZabcdefghijklmnopqrstuvwxyz**************************
**PARASOLID !"#$%&'()*+,-./:;<=>?@[\]^_`{|}~0123456789**************************
**PART1;
MC=unknown;
MC_MODEL=unknown;
MC_ID=unknown;
OS=unknown;
OS_RELEASE=unknown;
FRU=Parasolid 35.1.246;
APPL=Onshape;
SITE=unknown;
USER=unknown;
FORMAT=text;
GUISE=transmit;
KEY=BTGapi::writeModels_.xmt;
FILE=BTGapi::writeModels_.xmt;
DATE=2024-01-22T12:08:35 (UTC);
**PART2;
SCH=SCH_3501246_35102;
USFLD_SIZE=0;
**PART3;
**END_OF_HEADER*****************************************************************
T51 : TRANSMIT FILE created by modeller version 350124623 SCH_3501246_35102_1300
6231 0 12 36 CCCI7 lattice222 0 CCCI4 mesh1006 0 I8 polyline1008 0 CCCCCCCDI5 ow
ner1040 0 CCCI16 boundary_lattice222 0 CCCI13 boundary_mesh1006 0 I17 boundary_p
olyline1008 0 CCCA16 index_map_offset0 0 1 dA9 index_map82 0 A17 node_id_index_m
ap82 0 A20 schema_embedding_map82 0 A5 child12 0 A14 lowest_node_id0 0 1 dA16 me
sh_offset_data206 0 Z1 1508 2 3 0 0 0 0 0 0 0 1e3 1e-8 0 4 5 1 0 1 2 6 0 7 8 9 0
 0 10 11 12 0 0 0 0 0 0 0 81 255 1 2 1484 13 1 14 0 0 0 15 70 11 CI9 list_type0
 0 1 uI10 notransmit0 0 1 lCCCDCCDI12 finger_index0 0 1 dI12 finger_block1012 0
 CZ3 0 4 T1 0 0 5 20 1 16 16 13 255 6 137 0 1 0 17 0 0 18 0 50 255 7 132 0 19 20
 0 0 +0 -.003 .0135 -1 0 0 0 0 1 31 255 8 532 0 21 22 0 0 -.052 -.004 .014 0 -1
 0 0 0 -1 .01 29 255 9 1087 0 12 23 0 .038 -.008 .01 19 9 CCCCCCI5 frame230 0 CA
5 owner12 0 Z10 48 0 1 18 0 24 0 V0 16 255 11 120 25 ?26 0 27 22 0 0 1 18 255 12
 1085 28 29 0 30 9 ?1 81 1 28 1308 31 12 0 0 32 33 34 17 255 29 0 35 36 37 12 38
 39 0 40 -18 30 1080 41 36 12 42 23 ?1 81 1 41 1303 31 30 0 0 43 44 45 17 36 0 3
5 46 29 30 40 47 0 48 +18 42 1067 49 50 30 51 52 ?1 29 23 1084 0 30 52 9 .038 -.
008 0 29 52 1069 0 42 53 23 .03334271928232705 -.003 .01 29 53 1066 0 51 54 52 0
 -.003 .01 18 51 1062 44 55 42 56 53 ?1 29 54 1061 0 56 57 53 .038 -.003 .01 18
 56 1057 32 58 51 59 54 ?1 29 57 215 0 59 60 54 .038 -.003 .027 18 59 211 61 62
 56 63 57 ?1 29 60 113 0 64 65 57 -693889390390723e-32 0 .027 18 64 92 66 67 63
 68 60 ?1 29 65 114 0 68 69 60 .066 0 .027 18 68 96 70 71 64 72 65 ?1 29 69 115
 0 72 73 65 .066 0 0 18 72 100 74 75 68 76 69 ?1 29 73 116 0 76 77 69 0 0 0 18 7
6 104 78 26 72 79 73 ?1 29 77 44 0 63 80 73 -693889390390723e-32 -.003 .027 18 6
3 42 81 82 59 64 77 ?1 29 80 339 0 79 83 77 .066 -.011 .027 18 79 289 84 85 76 8
6 80 ?1 29 83 340 0 86 87 80 .066 -.011 0 18 86 287 88 89 79 90 83 ?1 29 87 341
 0 90 91 83 .038 -.011 0 18 90 285 92 93 86 94 87 ?1 29 91 342 0 94 95 87 .038 -
.011 .027 18 94 275 96 97 90 98 91 ?1 29 95 1269 0 99 100 91 .00965728071767301
 -.003 .01 18 99 1187 101 102 103 0 95 ?1 29 100 1275 0 98 104 95 .0096572807176
7301 -.008 .01 18 98 1203 105 106 94 107 100 ?1 29 104 1276 0 107 108 100 .03334
271928232705 -.008 .01 18 107 1199 109 110 98 111 104 ?1 29 108 1279 0 111 112 1
04 0 -.008 0 18 111 1189 113 114 107 103 108 ?1 29 112 1280 0 103 0 108 0 -.008
 .01 18 103 1185 115 116 111 99 112 ?1 81 1 115 1186 31 103 0 0 117 113 118 17 1
16 0 119 120 121 103 122 123 0 124 -15 255 119 1212 0 121 125 0 17 120 0 119 126
 116 98 124 127 0 128 +17 121 0 119 116 126 51 102 129 0 0 -17 122 0 130 82 131
 51 116 123 0 121 +16 123 1122 132 ?122 133 39 134 0 0 1 17 124 0 135 136 128 10
3 120 127 0 131 -15 135 1236 0 124 137 0 17 136 0 135 138 124 111 131 139 0 0 -1
7 128 0 135 124 140 98 141 142 0 0 -16 127 1113 143 ?120 139 144 145 0 0 1 17 13
1 0 130 122 114 103 136 139 0 0 +15 130 127 0 146 19 0 17 114 0 130 131 146 111
 26 11 0 147 -16 139 1119 148 ?131 149 127 150 0 0 1 81 1 148 1121 31 139 0 0 15
1 132 152 16 149 1157 117 ?138 47 139 153 0 0 1 30 255 150 1267 0 139 145 153 0
 +0 -.008 .0135 0 0 1 30 145 1268 0 127 154 150 0 +.0048286403588365 -.008 .01 1
 0 0 30 153 1266 0 149 150 155 0 +.033 -.008 0 1 0 0 30 155 1265 0 47 153 156 0
 +.038 -.008 .0135 513992141030165e-30 0 -1 16 47 1133 33 ?36 157 149 155 0 0 1
 30 156 1264 0 157 155 158 0 +.03567135964116355 -.008 .01 1 0 0 16 157 1143 159
 ?160 142 47 156 0 0 1 31 158 1263 0 142 156 161 0 +.0215 -.008 .014 0 -1 0 0 0
 -1 .0125 16 142 1151 162 ?141 163 157 158 0 0 1 30 161 1262 0 129 158 164 0 +.0
048286403588365 -.003 .01 1 0 0 16 129 1160 165 ?102 166 167 161 0 0 1 30 164 12
58 0 166 161 168 0 +.03567135964116355 -.003 .01 1 0 0 16 166 1170 169 ?58 144 1
29 164 0 0 1 31 168 1257 0 144 164 170 0 +.0215 -.003 .014 0 -1 0 0 0 -1 .0125 1
6 144 1165 171 ?50 127 166 168 0 0 1 30 170 1256 0 163 168 172 0 +.0096572807176
7301 -.008 .01 0 1 0 16 163 1116 151 ?126 173 142 170 0 0 1 30 172 1255 0 173 17
0 174 0 +.03334271928232705 -.008 .01 0 1 0 16 173 1154 175 ?176 39 163 172 0 0
 1 30 174 1254 0 39 172 134 0 +.038 -.008 .01 0 1 0 16 39 1146 177 ?38 123 173 1
74 0 0 1 30 134 1251 0 123 174 178 0 +0 -.008 .01 0 1 0 31 178 976 0 179 134 180
 0 +.0215 -867361737988404e-33 .0215 0 1 0 0 0 1 .0016 16 179 854 181 ?182 183 1
84 178 0 0 1 31 180 975 0 183 178 185 0 +.0215 -.003 .0215 0 1 0 0 0 1 .0016 16
 183 859 186 ?187 188 179 180 0 0 1 31 185 974 0 189 180 190 0 +.0215 -867361737
988404e-33 .0065 0 1 0 0 0 1 .0016 16 189 878 191 ?192 184 193 185 0 0 1 31 190
 973 0 184 185 194 0 +.0215 -.003 .0065 0 1 0 0 0 1 .0016 16 184 883 195 ?196 17
9 189 190 0 0 1 31 194 972 0 197 190 198 0 +.03 -867361737988404e-33 .014 0 1 0
 0 0 1 .0016 16 197 902 199 ?200 193 201 194 0 0 1 31 198 971 0 193 194 202 0 +.
03 -.003 .014 0 1 0 0 0 1 .0016 16 193 907 203 ?204 189 197 198 0 0 1 31 202 970
 0 133 198 205 0 +.013 -867361737988404e-33 .014 0 1 0 0 0 1 .0016 16 133 926 20
6 ?207 201 123 202 0 0 1 31 205 969 0 201 202 208 0 +.013 -.003 .014 0 1 0 0 0 1
 .0016 16 201 931 209 ?210 197 133 205 0 0 1 31 208 733 0 211 205 212 0 +.0215 -
.003 .014 0 -1 0 0 0 -1 .0036 16 211 709 213 ?214 215 188 208 0 0 1 31 212 732 0
 188 208 216 0 -.0215 0 .014 0 -1 0 0 0 -1 .0036 16 188 704 217 ?218 211 183 212
 0 0 1 31 216 594 0 219 212 220 0 +.052 -.004 .014 0 -1 0 0 0 -1 .01105 16 219 5
58 221 ?222 21 215 216 0 0 1 31 220 593 0 215 216 223 0 +.052 -.011 .014 0 -1 0
 0 0 -1 .01105 16 215 550 224 ?225 219 211 220 0 0 1 31 223 489 0 226 220 227 0
 -.052 0 .014 0 -1 0 0 0 -1 .01 16 226 461 228 ?229 230 21 223 0 0 1 30 227 334
 0 231 223 232 0 +.033 -.011 .027 1 0 0 16 231 231 233 ?234 235 230 227 0 0 1 30
 232 333 0 235 227 236 0 +.038 -.011 .0135 513992141030165e-30 0 -1 16 235 261 2
37 ?93 238 231 232 0 0 1 30 236 332 0 238 232 239 0 +.033 -.011 0 1 0 0 16 238 2
64 240 ?241 242 235 236 0 0 1 30 239 331 0 242 236 243 0 +.066 -.011 .0135 0 0 1
 16 242 267 244 ?245 246 238 239 0 0 1 30 243 329 0 230 239 247 0 +.038 -.003 .0
135 513992141030165e-30 0 -1 16 230 237 248 ?37 231 226 243 0 0 1 30 247 324 0 2
46 243 249 0 +.038 -.011 0 0 1 0 16 246 250 250 ?48 251 242 247 0 0 1 30 249 323
 0 251 247 252 0 +.038 -.011 .027 0 1 0 16 251 242 253 ?254 255 246 249 0 0 1 30
 252 9 0 256 249 257 0 +0 -.003 .0135 0 0 1 16 256 7 258 ?82 259 260 252 0 0 1 3
0 257 24 0 259 252 261 0 +.033 -.003 .027 1 0 0 16 259 22 262 ?263 264 256 257 0
 0 1 30 261 112 0 255 257 265 0 +0 0 .0135 0 0 1 16 255 88 266 ?267 268 251 261
 0 0 1 30 265 111 0 268 261 269 0 +.033 0 0 1 0 0 16 268 84 270 ?75 271 255 265
 0 0 1 30 269 110 0 271 265 272 0 +.066 0 .0135 0 0 1 16 271 80 273 ?274 260 268
 269 0 0 1 30 272 109 0 260 269 275 0 +.033 0 .027 1 0 0 16 260 76 276 ?277 256
 271 272 0 0 1 30 275 133 0 264 272 278 0 +-693889390390723e-32 -.003 .027 0 1 0
 16 264 117 279 ?67 280 259 275 0 0 1 30 278 134 0 280 275 281 0 +.066 -.003 .02
7 0 1 0 16 280 118 282 ?71 27 264 278 0 0 1 30 281 135 0 27 278 22 0 +.066 -.003
 0 0 1 0 16 27 119 283 ?284 11 280 281 0 0 1 30 22 136 0 11 281 8 0 +0 -.003 0 0
 1 0 81 1 283 367 31 27 0 0 61 282 285 17 284 0 286 274 287 72 89 27 0 288 +15 2
86 123 0 274 289 0 17 274 0 286 85 284 68 288 271 0 277 +17 287 0 286 284 85 86
 245 242 0 0 -17 89 0 290 291 75 86 284 27 0 241 -17 288 0 292 293 277 72 274 27
1 0 0 -15 292 75 0 267 294 0 17 293 0 292 267 288 76 75 268 0 146 -17 277 0 292
 288 267 68 295 260 0 0 +17 267 0 292 277 293 64 146 255 0 295 +17 295 0 296 297
 71 64 277 260 0 0 -15 296 121 0 295 298 0 17 297 0 296 263 295 63 67 264 0 299
 -17 71 0 296 295 234 68 85 280 0 274 +17 234 0 296 71 97 79 300 231 0 0 +17 85
 0 286 287 274 79 71 280 0 245 -17 245 0 301 300 241 79 287 242 0 234 +15 301 31
0 0 300 302 0 17 300 0 301 93 245 94 234 231 0 0 -17 241 0 301 245 93 86 291 238
 0 287 +17 93 0 301 241 300 90 303 235 0 46 +17 291 0 290 48 89 90 241 238 0 0 -
15 290 125 0 75 304 0 17 48 0 290 147 291 30 46 246 0 138 +17 147 0 290 26 48 11
1 138 149 0 136 -17 46 0 35 303 36 90 48 246 0 291 -17 138 0 135 40 136 30 147 1
49 0 0 +17 40 0 135 140 138 12 36 47 0 160 -17 140 0 135 128 40 107 160 157 0 14
1 -17 160 0 305 38 110 12 140 157 0 0 +15 305 1228 0 306 307 0 17 38 0 305 306 1
60 56 29 39 0 0 +17 110 0 305 160 306 107 176 173 0 140 -17 306 0 305 110 38 42
 58 166 0 0 -17 176 0 308 309 141 42 110 173 0 306 +15 308 1232 0 309 310 0 17 3
09 0 308 106 176 99 50 144 0 0 -17 141 0 308 176 106 107 128 142 0 0 +17 106 0 3
08 141 309 98 126 163 0 120 -17 126 0 119 121 120 99 106 163 0 309 +17 50 0 311
 58 102 42 309 144 0 176 +15 311 1068 0 55 312 313 17 58 0 311 62 50 56 306 166
 0 37 +17 102 0 311 50 55 99 121 129 0 126 +17 55 0 311 102 299 51 82 256 0 122
 -17 299 0 311 55 62 63 263 259 0 0 -17 82 0 130 67 122 63 55 256 0 297 +17 67 0
 130 146 82 64 297 264 0 267 +17 146 0 130 114 67 76 267 255 0 0 -17 62 0 311 29
9 58 59 37 230 0 263 -17 263 0 296 97 297 59 299 259 0 254 +17 97 0 296 234 263
 94 254 251 0 303 -17 254 0 35 37 303 59 97 251 0 0 +15 35 1089 0 29 17 0 17 37
 0 35 29 254 56 62 230 0 38 +17 303 0 35 254 46 94 93 235 0 300 -14 255 17 295 3
14 ?315 0 35 6 316 -0 0 315 0 24 81 1 314 1485 317 17 318 0 0 319 320 14 315 475
 319 ?19 17 321 6 322 -0 0 19 17 24 50 316 318 0 17 323 324 0 +.038 -.011 .0135
 1 0 513992141030165e-30 513992141030165e-30 0 -1 13 24 49 0 0 0 0 0 0 10 17 50
 323 322 0 302 322 316 0 +.033 -.011 .0135 0 -1 0 1 0 0 50 324 3 0 312 316 325 0
 +.033 -.003 .0135 0 -1 0 1 0 0 14 312 1 326 ?294 298 311 6 324 +0 0 294 298 24
 50 325 108 0 294 324 327 0 +.033 0 .0135 0 -1 0 1 0 0 14 294 68 328 ?302 312 32
9 6 325 -0 0 302 312 24 50 327 129 0 298 325 330 0 +.033 -.003 .027 0 0 1 1 0 0
 14 298 122 331 ?312 289 296 6 327 +0 0 312 289 24 50 330 130 0 289 327 20 0 +.0
66 -.003 .0135 -1 0 0 0 0 1 14 289 124 332 ?298 304 286 6 330 -0 0 298 304 24 50
 20 131 0 304 330 7 0 +.033 -.003 0 0 0 1 1 0 0 14 304 126 333 ?289 19 334 6 20
 -0 0 289 19 24 81 1 333 1488 317 304 335 0 336 332 337 14 19 128 336 ?304 315 1
30 6 7 +0 0 304 315 24 15 334 1405 0 338 304 339 17 338 0 334 338 338 0 340 167
 0 0 +15 339 1398 0 341 304 290 17 341 0 339 341 341 0 342 343 0 0 +17 342 0 344
 342 342 0 341 343 0 0 -16 343 1440 345 ?341 346 347 154 0 0 1 81 1 345 1474 31
 343 0 0 348 349 350 16 346 1415 349 ?351 167 343 352 0 0 1 16 347 1437 353 ?354
 343 0 355 0 0 1 31 154 1468 0 343 355 145 0 +.005 -.004 0 0 0 1 1 0 0 .001 31 3
55 1469 0 347 356 154 0 +.005 -.004 .004 0 0 1 1 0 0 .001 31 356 1470 0 167 352
 355 0 +.061 -.0055 0 0 0 1 1 0 0 .001 16 167 1418 348 ?338 129 346 356 0 0 1 31
 352 1471 0 346 0 356 0 +.061 -.0055 .004 0 0 1 1 0 0 .001 81 1 348 1473 31 167
 0 0 357 345 358 80 7 CCCCCDI12 legal_owners0 16 1 lCZ1 31 359 360 9000 0 0 0 0
 3 6 0 0 0 FFTFTFTTFFFFFFFF1 81 1 357 1321 31 312 0 326 318 348 361 82 255 3 358
 35 0 1 81 1 326 1491 317 312 357 0 331 328 362 81 1 318 1320 31 17 0 314 363 35
7 364 82 3 361 31 3 2 81 1 363 1318 31 19 0 336 248 318 365 82 3 364 31 2 2 81 1
 336 1487 317 19 363 0 319 333 366 81 1 248 1317 31 230 0 0 250 363 367 82 3 365
 31 0 2 81 1 250 1316 31 246 0 0 258 248 368 82 3 367 31 8 1 81 1 258 1315 31 25
6 0 0 25 250 369 82 3 368 31 7 1 81 1 25 1314 31 11 0 0 171 258 370 82 3 369 31
 6 1 81 1 171 1313 31 144 0 0 169 25 371 82 3 370 31 5 1 81 1 169 1312 31 166 0
 0 165 171 372 82 3 371 31 4 1 81 1 165 1311 31 129 0 0 177 169 373 82 3 372 31
 3 1 81 1 177 1310 31 39 0 0 33 165 374 82 3 373 31 2 1 81 1 33 1309 31 47 0 0 2
8 177 375 82 3 374 31 1 1 82 3 375 31 0 1 80 1 317 0 376 8001 0 0 0 0 3 5 0 0 0
 FFFFTFTFFFFFFFFF2 81 1 319 1486 317 315 377 0 314 336 378 83 255 3 366 .3019607
843137255 .3019607843137255 .3019607843137255 81 1 377 602 31 315 0 319 379 380
 381 83 3 378 .3019607843137255 .3019607843137255 .3019607843137255 81 1 379 601
 31 382 0 383 384 377 385 81 1 380 603 31 302 0 386 377 213 387 82 3 381 19 2 2
 14 302 307 386 ?382 294 388 6 323 +0 0 382 294 24 81 1 386 1493 317 302 380 0 3
28 383 389 81 1 213 735 31 211 0 0 380 217 390 82 3 387 19 3 2 81 1 217 736 31 1
88 0 0 213 391 392 82 3 390 23 0 1 81 1 391 737 31 393 0 394 217 186 395 82 3 39
2 23 1 1 14 393 718 394 ?396 397 398 6 399 -0 0 396 397 24 81 1 394 1496 317 393
 391 0 400 401 402 81 1 186 984 31 183 0 0 391 195 403 82 3 395 23 0 2 81 1 195
 985 31 184 0 0 186 203 404 82 3 403 27 0 1 81 1 203 986 31 193 0 0 195 209 405
 82 3 404 27 1 1 81 1 209 987 31 201 0 0 203 181 406 82 3 405 27 2 1 81 1 181 98
8 31 179 0 0 209 191 407 82 3 406 27 3 1 81 1 191 989 31 189 0 0 181 199 408 82
 3 407 27 4 1 81 1 199 990 31 197 0 0 191 206 409 82 3 408 27 5 1 81 1 206 991 3
1 133 0 0 199 410 411 82 3 409 27 6 1 81 1 410 992 31 412 0 413 206 414 415 82 3
 411 27 7 1 14 412 868 413 ?125 416 417 6 418 +0 0 125 416 24 81 1 413 1500 317
 412 410 0 419 420 421 81 1 414 993 31 416 0 419 410 422 423 82 3 415 27 0 2 14
 416 892 419 ?412 424 425 6 426 +0 0 412 424 24 81 1 419 1499 317 416 414 0 427
 413 428 81 1 422 994 31 424 0 427 414 429 430 82 3 423 27 1 2 14 424 916 427 ?4
16 396 431 6 432 +0 0 416 396 24 81 1 427 1498 317 424 422 0 401 419 433 81 1 42
9 995 31 396 0 401 422 434 435 82 3 430 27 2 2 14 396 940 401 ?424 393 436 6 437
 +0 0 424 393 24 81 1 401 1497 317 396 429 0 394 427 438 81 1 434 997 31 294 0 3
28 429 143 439 82 3 435 27 3 2 81 1 328 1492 317 294 434 0 326 386 440 81 1 143
 1115 31 127 0 0 434 151 441 82 3 439 27 5 2 81 1 151 1118 31 163 0 0 143 148 44
2 82 3 441 30 9 1 82 3 442 30 3 1 83 3 440 .3019607843137255 .3019607843137255 .
3019607843137255 83 3 438 .3019607843137255 .3019607843137255 .3019607843137255
 15 436 943 0 207 396 443 51 255 437 958 0 396 432 399 0 -.013 -.003 .014 0 1 0
 .0016 0 0 1 51 432 961 0 424 426 437 0 -.03 -.003 .014 0 1 0 .0016 0 0 1 51 399
 729 0 393 437 444 0 +.0215 199999999999983e-20 .014 0 -1 0 .0036 0 0 -1 50 444
 591 0 382 399 445 0 +.052 -.004 .0135 0 -1 0 1 0 0 14 382 579 383 ?397 302 446
 6 444 +0 0 397 302 24 51 445 589 0 397 444 322 0 +.052 -.004 .014 0 -1 0 .01105
 0 0 -1 14 397 574 400 ?393 382 447 6 445 -0 0 393 382 24 51 322 486 0 315 445 3
23 0 +.052 2000000000000265e-21 .014 0 -1 0 .01 0 0 -1 81 1 400 1495 317 397 384
 0 383 394 448 15 447 577 0 449 397 450 17 449 0 447 449 449 0 222 219 0 0 -15 4
50 578 0 225 397 0 17 225 0 450 225 225 0 451 215 0 0 +17 451 0 388 451 451 0 22
5 215 0 0 -15 388 538 0 451 302 301 17 222 0 446 222 222 0 449 219 0 0 +15 446 5
67 0 222 382 452 15 452 568 0 453 382 0 17 453 0 452 453 453 0 454 21 0 0 +17 45
4 0 455 454 454 0 453 21 0 0 -16 21 561 456 ?453 226 219 8 0 0 1 81 1 456 597 31
 21 0 0 228 224 457 81 1 228 492 31 226 0 0 458 456 459 81 1 224 598 31 215 0 0
 456 221 460 82 3 457 19 0 1 81 1 221 599 31 219 0 0 224 384 461 82 3 460 19 1 1
 81 1 384 600 31 397 0 400 221 379 462 82 3 461 19 2 1 82 3 462 19 0 2 81 1 458
 373 31 289 0 332 463 228 464 82 3 459 15 0 1 81 1 332 1489 317 289 458 0 333 33
1 465 81 1 463 372 31 298 0 331 262 458 466 82 3 464 10 2 2 81 1 331 1490 317 29
8 463 0 332 326 467 81 1 262 370 31 259 0 0 282 463 468 82 3 466 10 1 2 81 1 282
 368 31 280 0 0 283 262 469 82 3 468 10 4 1 82 3 469 10 2 1 83 3 467 .3019607843
137255 .3019607843137255 .3019607843137255 83 3 465 .3019607843137255 .301960784
3137255 .3019607843137255 15 455 531 0 454 315 0 81 1 383 1494 317 382 379 0 386
 400 470 83 3 448 .3019607843137255 .3019607843137255 .3019607843137255 83 3 470
 .3019607843137255 .3019607843137255 .3019607843137255 51 426 964 0 416 418 432
 0 -.0215 -.003 .0065 0 1 0 .0016 0 0 1 51 418 967 0 412 471 426 0 -.0215 -.003
 .0215 0 1 0 .0016 0 0 1 50 471 1243 0 125 472 418 0 +.0048286403588365 -.008 .0
1 0 0 1 1 0 0 14 125 1209 420 ?307 412 119 6 471 +0 0 307 412 24 50 472 1247 0 3
07 473 471 0 +.03567135964116355 -.008 .01 0 0 1 1 0 0 14 307 1225 474 ?310 125
 305 6 472 +0 0 310 125 24 51 473 1248 0 310 475 472 0 -.0215 -.008 .014 0 1 0 .
0125 0 0 1 14 310 1229 476 ?137 307 308 6 473 +0 0 137 307 24 50 475 1250 0 137
 477 473 0 +.019 -.008 .0135 0 -1 0 1 0 0 14 137 1233 478 ?479 310 135 6 475 +0
 0 479 310 24 51 477 1463 0 480 481 475 0 -.005 -.004 0 0 0 1 .001 1 0 0 14 480
 1449 482 ?483 479 484 6 477 +0 0 483 479 24 50 481 1464 0 479 485 477 0 +.006 -
.004 .004 0 0 -1 -1 0 0 14 479 1445 486 ?480 137 487 6 481 +0 0 480 137 24 51 48
5 1466 0 488 489 481 0 -.061 -.0055 0 0 0 1 .001 1 0 0 14 488 1427 490 ?0 483 49
1 6 485 +0 0 0 483 24 50 489 1467 0 483 0 485 0 +.062 -.0055 .004 0 0 -1 -1 0 0
 14 483 1423 492 ?488 480 493 6 489 +0 0 488 480 24 81 1 492 1507 317 483 494 0
 482 490 495 15 493 1426 0 496 483 0 17 496 0 493 496 496 0 351 346 0 0 -17 351
 0 491 351 351 0 496 346 0 0 +15 491 1430 0 351 488 497 15 497 1431 0 340 488 0
 17 340 0 497 340 340 0 338 167 0 0 -81 1 494 1479 31 483 0 492 498 499 500 81 1
 482 1506 317 480 498 0 486 492 501 81 1 490 1508 317 488 502 0 492 0 503 83 3 4
95 .3019607843137255 .3019607843137255 .3019607843137255 81 1 502 1477 31 488 0
 490 353 498 504 83 3 503 .3019607843137255 .3019607843137255 .3019607843137255
 81 1 353 1476 31 347 0 0 349 502 505 81 1 498 1478 31 480 0 482 502 494 506 82
 3 504 35 0 2 82 3 506 35 1 2 81 1 349 1475 31 346 0 0 345 353 507 82 3 505 35 3
 1 82 3 507 35 2 1 81 1 486 1505 317 479 499 0 478 482 508 83 3 501 .30196078431
37255 .3019607843137255 .3019607843137255 81 1 499 1480 31 479 0 486 494 335 509
 81 1 478 1504 317 137 510 0 476 486 511 83 3 508 .3019607843137255 .30196078431
37255 .3019607843137255 81 1 510 1235 31 137 0 478 512 43 513 81 1 476 1503 317
 310 512 0 474 478 514 83 3 511 .3019607843137255 .3019607843137255 .30196078431
37255 81 1 512 1231 31 310 0 476 515 510 516 81 1 474 1502 317 307 515 0 420 476
 517 83 3 514 .3019607843137255 .3019607843137255 .3019607843137255 81 1 515 122
7 31 307 0 474 518 512 519 81 1 420 1501 317 125 518 0 413 474 520 83 3 517 .301
9607843137255 .3019607843137255 .3019607843137255 81 1 518 1211 31 125 0 420 105
 515 521 83 3 520 .3019607843137255 .3019607843137255 .3019607843137255 81 1 105
 1204 31 98 0 0 109 518 522 82 3 521 30 3 2 81 1 109 1200 31 107 0 0 113 105 523
 82 3 522 30 7 0 81 1 113 1190 31 111 0 0 115 109 524 82 3 523 30 9 0 82 3 524 3
0 1 0 82 3 519 30 4 2 82 3 516 30 7 2 81 1 43 1302 31 1 0 525 510 41 526 82 3 51
3 30 2 2 81 1 525 1482 527 1 43 14 0 0 528 82 3 526 6 0 3 80 1 527 529 530 8038
 0 0 0 0 0 0 0 0 0 TTTTTTTTTTTTTFTF10 81 1 14 1483 529 1 525 2 0 0 531 98 255 6
 528 80 97 114 116 32 49 80 1 529 532 533 8017 0 0 0 0 0 0 0 0 0 TTTTTTTTTTTTTFT
F3 84 255 6 531 Part 179 255 13 533 SDL/TYSA_NAME79 14 530 SDL/TYSA_UNAME81 1 33
5 1481 31 304 0 333 499 0 534 82 3 509 35 3 2 82 3 534 35 4 2 82 3 500 35 2 2 15
 487 1448 0 535 479 0 17 535 0 487 535 535 0 354 347 0 0 -17 354 0 484 354 354 0
 535 347 0 0 +15 484 1452 0 354 480 344 15 344 1453 0 342 480 0 17 207 0 436 207
 207 0 536 133 0 0 +15 443 944 0 537 396 0 17 537 0 443 537 537 0 210 201 0 0 -1
7 210 0 538 210 210 0 537 201 0 0 +15 538 810 0 210 312 539 15 539 694 0 540 312
 0 17 540 0 539 540 540 0 214 211 0 0 -17 214 0 541 214 214 0 540 211 0 0 +15 54
1 722 0 214 393 0 17 536 0 542 536 536 0 207 133 0 0 -15 542 783 0 536 294 543 1
5 543 686 0 544 294 545 17 544 0 543 544 544 0 218 188 0 0 -15 545 450 0 546 294
 292 17 546 0 545 546 546 0 229 226 0 0 -17 229 0 321 229 229 0 546 226 0 0 +15
 321 478 0 229 315 455 17 218 0 398 218 218 0 544 188 0 0 +15 398 721 0 218 393
 541 83 3 433 .3019607843137255 .3019607843137255 .3019607843137255 15 431 919 0
 200 424 547 17 200 0 431 200 200 0 548 197 0 0 +15 547 920 0 549 424 0 17 549 0
 547 549 549 0 204 193 0 0 -17 204 0 550 204 204 0 549 193 0 0 +15 550 817 0 204
 312 538 17 548 0 551 548 548 0 200 197 0 0 -15 551 790 0 548 294 542 83 3 428 .
3019607843137255 .3019607843137255 .3019607843137255 15 425 895 0 192 416 552 17
 192 0 425 192 192 0 553 189 0 0 +15 552 896 0 554 416 0 17 554 0 552 554 554 0
 196 184 0 0 -17 196 0 555 196 196 0 554 184 0 0 +15 555 824 0 196 312 550 17 55
3 0 556 553 553 0 192 189 0 0 -15 556 797 0 553 294 551 83 3 421 .30196078431372
55 .3019607843137255 .3019607843137255 15 417 871 0 182 412 557 17 182 0 417 182
 182 0 558 179 0 0 +15 557 872 0 559 412 0 17 559 0 557 559 559 0 187 183 0 0 -1
7 187 0 313 187 187 0 559 183 0 0 +15 313 831 0 187 312 555 17 558 0 329 558 558
 0 182 179 0 0 -15 329 804 0 558 294 556 83 3 402 .3019607843137255 .30196078431
37255 .3019607843137255 83 3 389 .3019607843137255 .3019607843137255 .3019607843
137255 82 3 385 19 1 2 79 15 376 SDL/TYSA_COLOUR83 3 362 .3019607843137255 .3019
607843137255 .3019607843137255 79 9 360 BTI/DetId82 3 350 35 1 1 83 3 337 .30196
07843137255 .3019607843137255 .3019607843137255 83 3 320 .3019607843137255 .3019
607843137255 .3019607843137255 17 26 0 290 75 147 76 114 11 0 293 +17 75 0 290 8
9 26 72 293 268 0 284 +81 1 61 364 31 59 0 0 84 283 560 82 3 285 10 1 1 81 1 84
 290 31 79 0 0 88 61 561 82 3 560 10 0 0 81 1 88 288 31 86 0 0 92 84 562 82 3 56
1 9 3 0 81 1 92 286 31 90 0 0 96 88 563 82 3 562 9 1 0 81 1 96 276 31 94 0 0 244
 92 564 82 3 563 9 7 0 81 1 244 269 31 242 0 0 240 96 565 82 3 564 9 5 0 81 1 24
0 266 31 238 0 0 237 244 566 82 3 565 9 9 1 81 1 237 263 31 235 0 0 253 240 567
 82 3 566 9 7 1 81 1 253 244 31 251 0 0 233 237 568 82 3 567 9 11 1 81 1 233 233
 31 231 0 0 273 253 569 82 3 568 9 2 1 81 1 273 170 31 271 0 0 266 233 570 82 3
 569 9 5 1 81 1 266 168 31 255 0 0 276 273 571 82 3 570 6 10 1 81 1 276 166 31 2
60 0 0 270 266 572 82 3 571 6 8 1 81 1 270 164 31 268 0 0 279 276 573 82 3 572 6
 6 1 81 1 279 162 31 264 0 0 70 270 574 82 3 573 6 4 1 81 1 70 158 31 68 0 0 81
 279 575 82 3 574 6 2 1 81 1 81 157 31 63 0 0 66 70 576 82 3 575 6 6 0 81 1 66 1
56 31 64 0 0 74 81 577 82 3 576 6 5 0 81 1 74 154 31 72 0 0 78 66 578 82 3 577 6
 4 0 81 1 78 152 31 76 0 0 0 74 579 82 3 578 6 2 0 82 3 579 6 0 0 81 1 175 1156
 31 173 0 0 162 117 580 81 1 162 1153 31 142 0 0 159 175 581 81 1 117 1159 31 14
9 0 0 175 115 582 82 3 580 30 4 1 82 3 582 30 15 1 81 1 159 1145 31 157 0 0 132
 162 583 82 3 581 30 17 1 81 1 132 1124 31 123 0 0 148 159 584 82 3 583 30 11 1
 82 3 584 30 2 1 82 3 152 30 7 1 82 3 118 30 5 0 81 1 101 1305 31 99 0 0 44 49 5
85 81 1 44 1304 31 51 0 0 41 101 586 81 1 49 1306 31 42 0 0 101 32 587 82 3 585
 31 2 0 81 1 32 1307 31 56 0 0 49 28 588 82 3 587 31 3 0 82 3 588 31 4 0 82 3 58
6 31 1 0 82 3 45 31 0 0 82 3 34 31 5 0 19 18 138 0 1 0 10 6 0 S0 74 4 CI16 index
_map_offset0 0 1 dCCZ20 16 5 0 0 335 525 14 2 490 0 0 0 0 0 0 0 0 0 0 0 0 0 0 0
 80 1 13 317 589 8040 0 0 0 0 3 5 0 0 0 TTTFFFFFFFFFFFFF2 83 3 15 .3019607843137
255 .3019607843137255 .3019607843137255 79 17 589 SDL/TYSA_COLOUR_21 0 
